HIERARCHY
ROOT Hips
{
	OFFSET 0.00000 0.00000 0.00000
	CHANNELS 6 Xposition Yposition Zposition Zrotation Yrotation Xrotation 
	JOINT LHipJoint
	{
		OFFSET 0 0 0
		CHANNELS 3 Zrotation Yrotation Xrotation
		JOINT LeftHip
		{
			OFFSET 1.82298 -1.58346 0.87084
			CHANNELS 3 Zrotation Yrotation Xrotation
			JOINT LeftKnee
			{
				OFFSET 2.43790 -6.69809 0.00000
				CHANNELS 3 Zrotation Yrotation Xrotation
				JOINT LeftAnkle
				{
					OFFSET 2.59288 -7.12389 0.00000
					CHANNELS 3 Zrotation Yrotation Xrotation
					JOINT LeftToe
					{
						OFFSET 0.14552 -0.39981 2.13160
						CHANNELS 3 Zrotation Yrotation Xrotation
						End Site
						{
							OFFSET 0.00000 -0.00000 1.09427
						}
					}
				}
			}
		}
	}
	JOINT RHipJoint
	{
		OFFSET 0 0 0
		CHANNELS 3 Zrotation Yrotation Xrotation
		JOINT RightHip
		{
			OFFSET -1.77229 -1.58346 0.87084
			CHANNELS 3 Zrotation Yrotation Xrotation
			JOINT RightKnee
			{
				OFFSET -2.50703 -6.88801 0.00000
				CHANNELS 3 Zrotation Yrotation Xrotation
				JOINT RightAnkle
				{
					OFFSET -2.61620 -7.18796 0.00000
					CHANNELS 3 Zrotation Yrotation Xrotation
					JOINT RightToe
					{
						OFFSET -0.15190 -0.41735 2.15974
						CHANNELS 3 Zrotation Yrotation Xrotation
						End Site
						{
							OFFSET -0.00000 -0.00000 1.10919
						}
					}
				}
			}
		}
	}
	JOINT lowerback
	{
		OFFSET 0 0 0
		CHANNELS 3 Zrotation Yrotation Xrotation
		JOINT Chest
		{
			OFFSET -0.03602 2.12423 -0.30249
			CHANNELS 3 Zrotation Yrotation Xrotation
			JOINT Chest2
			{
				OFFSET 0.02717 2.10043 0.12912
				CHANNELS 3 Zrotation Yrotation Xrotation
				JOINT lowerneck
				{
					OFFSET 0 0 0
					CHANNELS 3 Zrotation Yrotation Xrotation
					JOINT Neck
					{
						OFFSET -0.06371 1.88656 0.11602
						CHANNELS 3 Zrotation Yrotation Xrotation
						JOINT Head
						{
							OFFSET 0.08208 1.87759 -0.11505
							CHANNELS 3 Zrotation Yrotation Xrotation
							End Site
							{
								OFFSET 0.03382 1.93090 -0.05483
							}
						}
					}
				}
				JOINT LeftCollar
				{
					OFFSET 0 0 0
					CHANNELS 3 Zrotation Yrotation Xrotation
					JOINT LeftShoulder
					{
						OFFSET 3.30903 1.40357 0.20156
CHANNELS 3 Zrotation Xrotation Yrotation
						JOINT LeftElbow
						{
OFFSET 0 -5.433010 0.000000
CHANNELS 3 Zrotation Xrotation Yrotation
							JOINT LeftWrist
							{
OFFSET 0 -3.159360 0.000000
CHANNELS 3 Zrotation Xrotation Yrotation
								JOINT lhand
								{
									OFFSET 0 0 0
CHANNELS 3 Zrotation Xrotation Yrotation
									JOINT LFingers
									{
OFFSET 0 -0.712830 0.000000
CHANNELS 3 Zrotation Xrotation Yrotation
										End Site
										{
OFFSET 0 -0.574700 0.000000
										}
									}
								}
								JOINT LThumb
								{
OFFSET 0 0.000000 0.000000
CHANNELS 3 Zrotation Xrotation Yrotation
									End Site
									{
OFFSET 0 -0.583470 0.583470
									}
								}
							}
						}
					}
				}
				JOINT RightCollar
				{
					OFFSET 0 0 0
					CHANNELS 3 Zrotation Yrotation Xrotation
					JOINT RightShoulder
					{
						OFFSET -3.12947 1.60037 -0.00464
CHANNELS 3 Zrotation Xrotation Yrotation
						JOINT RightElbow
						{
OFFSET 0 -5.341940 0.000000
CHANNELS 3 Zrotation Xrotation Yrotation
							JOINT RightWrist
							{
OFFSET 0 -3.193510 0.000000
CHANNELS 3 Zrotation Xrotation Yrotation
								JOINT rhand
								{
									OFFSET 0 0 0
CHANNELS 3 Zrotation Xrotation Yrotation
									JOINT RFingers
									{
OFFSET 0 -0.743860 0.000000
CHANNELS 3 Zrotation Xrotation Yrotation
										End Site
										{
OFFSET 0 -0.599720 0.000000
										}
									}
								}
								JOINT RThumb
								{
OFFSET 0 0.000000 0.000000
CHANNELS 3 Zrotation Xrotation Yrotation
									End Site
									{
OFFSET 0 -0.608880 0.608880
									}
								}
							}
						}
					}
				}
			}
		}
	}
}
MOTION
Frames: 5
Frame Time: 0.008333333333333333
-0.845339 11.461931 11.273373 -1.666944 1.416451 9.116253 0.000000 0.000000 0.000000 -3.653188 -7.396283 -74.360322 26.238515 19.040103 108.525217 2.962869 5.413911 -34.744284 0.514806 -4.598956 -12.768089 0.000000 0.000000 0.000000 7.048650 13.820668 -73.168513 -26.567054 -18.932958 109.535133 -3.305600 -5.962205 -36.786083 -0.491163 4.493546 -12.469420 -2.356739 1.578840 18.994813 1.086006 1.695174 -3.577643 2.044718 1.045385 -14.936756 -5.610091 -3.227436 -9.308056 4.972098 -4.073781 7.939578 2.175450 -1.915066 4.108745 0.000000 0.000000 0.000000 -2.168914 -72.256890 -37.851294 85.024094 -59.906248 55.692077 10.894573 35.976538 -2.013841 0.000000 0.000000 0.000000 -7.125000 0.000000 0.000000 -12.549880 31.863610 -4.120391 0.000000 0.000000 0.000000 -55.003947 -62.890656 -5.568412 -97.826270 -59.767303 -66.772428 1.232271 20.440474 13.992740 0.000000 0.000000 0.000000 7.125000 0.000000 0.000000 25.525198 42.420361 1.750369
-0.846017 11.461592 11.273518 -1.664233 1.420954 9.114558 0.000000 0.000000 0.000000 -3.652365 -7.398849 -74.358967 26.239144 19.039910 108.527250 2.963208 5.411732 -34.745252 0.514419 -4.597068 -12.762666 0.000000 0.000000 0.000000 7.050151 13.815003 -73.167738 -26.568361 -18.932474 109.539200 -3.305600 -5.968015 -36.788649 -0.491889 4.496838 -12.478861 -2.357417 1.577920 18.994038 1.085619 1.693721 -3.576530 2.045154 1.044756 -14.934868 -5.613674 -3.228307 -9.306168 4.975293 -4.074943 7.940933 2.176951 -1.915599 4.109036 0.000000 0.000000 0.000000 -2.166542 -72.257471 -37.842483 85.027483 -59.906345 55.695030 10.906918 35.974214 -2.015923 0.000000 0.000000 0.000000 -7.125000 0.000000 0.000000 -12.540439 31.866031 -4.116372 0.000000 0.000000 0.000000 -55.027040 -62.893367 -5.593636 -97.829611 -59.767110 -66.775285 1.231012 20.439021 13.991820 0.000000 0.000000 0.000000 7.125000 0.000000 0.000000 25.523794 42.419683 1.750708
-0.846694 11.461274 11.273663 -1.661375 1.425456 9.112780 0.000000 0.000000 0.000000 -3.651648 -7.402214 -74.357127 26.239794 19.039695 108.529283 2.963652 5.409574 -34.746747 0.513590 -4.593392 -12.752238 0.000000 0.000000 0.000000 7.051316 13.809696 -73.166395 -26.569605 -18.932032 109.543036 -3.305747 -5.973004 -36.791678 -0.492510 4.499626 -12.486787 -2.358494 1.576874 18.993074 1.085337 1.692017 -3.575437 2.046010 1.044042 -14.932917 -5.618077 -3.229284 -9.302807 4.979856 -4.076273 7.940606 2.179020 -1.916194 4.108632 0.000000 0.000000 0.000000 -2.161729 -72.257821 -37.831736 85.031146 -59.906463 55.698215 10.918633 35.972521 -2.017142 0.000000 0.000000 0.000000 -7.125000 0.000000 0.000000 -12.531377 31.867589 -4.112775 0.000000 0.000000 0.000000 -55.048093 -62.896246 -5.616651 -97.832825 -59.766916 -66.778057 1.229879 20.437716 13.990753 0.000000 0.000000 0.000000 7.125000 0.000000 0.000000 25.522453 42.418837 1.751173
-0.847372 11.460983 11.273808 -1.658325 1.429959 9.110891 0.000000 0.000000 0.000000 -3.651067 -7.406620 -74.354658 26.240472 19.039453 108.531317 2.964233 5.407444 -34.748925 0.512186 -4.587388 -12.735293 0.000000 0.000000 0.000000 7.052042 13.804855 -73.164314 -26.570767 -18.931644 109.546570 -3.306086 -5.976925 -36.795309 -0.492994 4.501756 -12.492742 -2.360092 1.575664 18.991864 1.085192 1.689983 -3.574372 2.047414 1.043219 -14.930883 -5.623548 -3.230397 -9.297530 4.986198 -4.077822 7.938089 2.181828 -1.916872 4.107325 0.000000 0.000000 0.000000 -2.153741 -72.257869 -37.818471 85.035164 -59.906608 55.701700 10.929526 35.971650 -2.017239 0.000000 0.000000 0.000000 -7.125000 0.000000 0.000000 -12.522808 31.868025 -4.109725 0.000000 0.000000 0.000000 -55.066491 -62.899345 -5.636791 -97.835875 -59.766722 -66.780720 1.228911 20.436603 13.989494 0.000000 0.000000 0.000000 7.125000 0.000000 0.000000 25.521194 42.417772 1.751803
-0.848050 11.460621 11.273936 -1.655632 1.433872 9.109486 0.000000 0.000000 0.000000 -3.649878 -7.410990 -74.353457 26.241382 19.039157 108.534101 2.964814 5.405671 -34.751175 0.510853 -4.581617 -12.718973 0.000000 0.000000 0.000000 7.052518 13.801407 -73.163196 -26.572179 -18.931186 109.550872 -3.306479 -5.980793 -36.799118 -0.493496 4.503957 -12.498947 -2.361743 1.574596 18.990207 1.085189 1.688182 -3.573486 2.048961 1.042521 -14.928778 -5.630055 -3.231475 -9.291395 4.994094 -4.079372 7.934446 2.185297 -1.917514 4.105571 0.000000 0.000000 0.000000 -2.144913 -72.258025 -37.804920 85.039915 -59.906789 55.705811 10.937204 35.971171 -2.017657 0.000000 0.000000 0.000000 -7.125000 0.000000 0.000000 -12.516811 31.868675 -4.107478 0.000000 0.000000 0.000000 -55.084013 -62.901979 -5.655752 -97.838747 -59.766546 -66.783222 1.228086 20.435436 13.987896 0.000000 0.000000 0.000000 7.125000 0.000000 0.000000 25.519918 42.416403 1.752629
